<?xml version="1.0" encoding="utf-8"?>
<!-- Generator: Adobe Illustrator 16.0.0, SVG Export Plug-In . SVG Version: 6.00 Build 0)  -->
<!DOCTYPE svg PUBLIC "-//W3C//DTD SVG 1.1//EN" "http://www.w3.org/Graphics/SVG/1.1/DTD/svg11.dtd">
<svg version="1.1" id="Layer_1" xmlns="http://www.w3.org/2000/svg" xmlns:xlink="http://www.w3.org/1999/xlink" x="0px" y="0px"
	 width="1195.5px" height="361.961px" viewBox="0 0 1195.5 361.961" enable-background="new 0 0 1195.5 361.961"
	 xml:space="preserve">
<path fill-rule="evenodd" clip-rule="evenodd" fill="#FFFFFF" d="M243.74,113.728c19.554-37.735,38.734-74.752,58.031-111.99
	c-3.295-0.703-5.721-1.22-8.146-1.738c-2.667,0-5.334,0-8.001,0c-2.316,0.481-4.625,1-6.95,1.437
	c-18.942,3.558-32.702,14.918-42.638,30.512c-8.84,13.874-16.116,28.755-23.895,43.291c-6.278,11.733-12.325,23.59-18.359,35.453
	c-1.163,2.287-2.499,3.288-5.206,3.248c-23.713-0.352-47.429-0.514-71.143-0.804c-18.14-0.222-36.213,0.397-53.912,4.829
	c-32.841,8.222-53.107,29.328-62.479,61.461c-0.295,1.012-0.693,1.993-1.043,2.989c0,3.734,0,7.467,0,11.201
	c0.334,1.678,0.792,3.342,0.984,5.035c1.679,14.804,6.859,27.719,20.172,35.866c10.423,6.379,22.046,9.756,34.137,9.842
	c45.596,0.323,91.194,0.149,136.792,0.177c1.105,0.001,2.21,0.175,3.948,0.32c-20.408,39.038-40.514,77.495-60.82,116.339
	c17.452,2.8,31.821-2.212,44.49-12.801c12.489-10.438,21.394-23.689,28.907-37.916c13.37-25.313,26.623-50.688,39.788-76.108
	c1.392-2.688,3.058-3.466,5.922-3.435c12.398,0.135,24.799,0.099,37.197-0.012c1.152-0.011,2.297-0.984,3.444-1.511
	c-1.154-0.656-2.298-1.859-3.466-1.884c-11.329-0.233-22.663-0.256-33.995-0.38c-1.5-0.016-2.998-0.261-4.966-0.442
	c0.954-1.924,1.584-3.23,2.246-4.521c10.578-20.603,20.957-41.31,31.858-61.74c3.476-6.513,8.073-12.494,12.661-18.321
	c3.259-4.14,7.891-5.821,13.451-5.629c9.987,0.344,19.997-0.006,29.994,0.156c3.166,0.052,4.824-1.374,6.141-4.079
	c-0.624-0.164-0.98-0.34-1.337-0.34c-28.665-0.01-57.33-0.103-85.993,0.164c-2.536,0.023-5.428,1.971-7.465,3.794
	c-1.895,1.697-2.981,4.362-4.229,6.705c-14.336,26.911-28.628,53.846-42.952,80.763c-2.258,4.243-13.707,5.641-16.864,1.944
	c-0.94-1.101-1.709-2.984-1.475-4.319c0.495-2.818,1.353-5.692,2.673-8.226c15.136-29.047,30.446-58,45.522-87.077
	c1.716-3.308,3.612-4.519,7.336-4.504c35.598,0.138,71.195,0.083,106.794,0.082c6.434,0,7.321-0.657,10.1-7.833
	C322.001,113.728,283.217,113.728,243.74,113.728z M127.04,136.553c7.231-9.655,16.684-15.437,29.233-15.25
	c10.239,0.151,20.482,0.03,31.633,0.03c-2.416,4.797-4.319,8.72-6.347,12.576c-7.247,13.783-14.594,27.515-21.757,41.341
	c-1.267,2.443-2.729,3.334-5.524,3.444c-10.718,0.423-19.628-3.083-26.408-11.455C120.425,158.048,119.959,146.007,127.04,136.553z
	 M198.244,230.994c1.412,0,2.824,0,4.364,0c-1.618,6.41-2.719,7.363-8.391,7.329c-27.183-0.165-54.364-0.332-81.546-0.56
	c-6.726-0.056-12.784-2.275-18.191-6.262c-9.635-7.101-12.306-17.378-6.548-27.818c6.603-11.972,17.025-18.568,30.763-19.007
	c11.564-0.37,23.15-0.077,35.793-0.077c-1.665,3.28-2.9,5.937-4.329,8.483c-4.529,8.08-6.25,16.589-4.343,25.76
	c1.832,8.811,5.846,12.15,14.835,12.151C173.183,230.995,185.714,230.994,198.244,230.994z"/>
<path fill="#FFFFFF" d="M400.561,114.078h69.124v17.191h-48.709v35.458h45.844v17.192h-45.844v40.829h50.142v17.191h-70.557V114.078
	z"/>
<path fill="#FFFFFF" d="M508.523,131.269H478.08v-17.191h80.764v17.191h-29.906v110.67h-20.415V131.269z"/>
<path fill="#FFFFFF" d="M569.104,114.078h68.228v17.191h-47.813v35.458h44.948v17.192h-44.948v58.021h-20.415V114.078z"/>
<path fill="#FFFFFF" d="M750.506,146.849c0-15.759-7.342-25.25-22.922-25.25s-24.176,10.208-24.176,22.922
	c0,38.144,61.961,17.191,61.961,62.14c0,24.713-15.4,37.428-38.681,37.428c-23.996,0-37.248-12.895-37.248-37.965v-3.761h11.461
	v4.835c0,16.296,8.596,27.22,25.429,27.22c16.117,0,27.578-8.059,27.578-25.966c0-37.964-61.961-16.296-61.961-62.677
	c0-20.057,13.072-33.845,35.278-33.845c23.817,0,34.741,12.177,34.741,34.92H750.506z"/>
<path fill="#FFFFFF" d="M777.616,175.143c0-19.52,9.312-30.443,29.368-30.443c19.699,0,26.862,10.208,26.862,25.25v56.23
	c0,5.372,1.79,7.879,5.552,7.879h3.044v7.88c-1.97,0.716-3.581,1.074-5.015,1.074c-8.416,0-13.789-1.97-13.789-11.819v-3.223h-0.357
	c-4.298,12.535-13.969,16.117-24.533,16.117c-16.654,0-24.176-10.387-24.176-26.862c0-12.535,5.73-22.563,19.161-26.324l20.235-5.73
	c7.521-2.149,9.133-3.939,9.133-15.042c0-12.177-6.805-16.475-16.475-16.475c-12.715,0-18.266,7.7-18.266,21.489H777.616z
	 M823.102,188.215h-0.357c-1.074,3.224-7.164,5.193-11.461,6.268l-8.954,2.328c-10.745,2.865-16.296,8.417-16.296,19.699
	c0,11.103,5.73,18.624,15.042,18.624c13.073,0,22.026-9.85,22.026-26.862V188.215z"/>
<path fill="#FFFFFF" d="M851.538,146.849h10.744v14.863h0.358c4.119-10.565,12.894-17.012,23.996-17.012
	c1.254,0,2.508,0.179,3.761,0.537v10.745c-1.79-0.358-3.581-0.537-5.193-0.537c-11.819,0-22.922,8.596-22.922,27.04v59.454h-10.744
	V146.849z"/>
<path fill="#FFFFFF" d="M895.626,175.143c0-19.52,9.312-30.443,29.369-30.443c19.698,0,26.861,10.208,26.861,25.25v56.23
	c0,5.372,1.791,7.879,5.551,7.879h3.045v7.88c-1.97,0.716-3.582,1.074-5.015,1.074c-8.416,0-13.788-1.97-13.788-11.819v-3.223
	h-0.358c-4.298,12.535-13.968,16.117-24.533,16.117c-16.654,0-24.176-10.387-24.176-26.862c0-12.535,5.73-22.563,19.161-26.324
	l20.235-5.73c7.521-2.149,9.133-3.939,9.133-15.042c0-12.177-6.805-16.475-16.475-16.475c-12.715,0-18.266,7.7-18.266,21.489
	H895.626z M941.111,188.215h-0.357c-1.075,3.224-7.163,5.193-11.461,6.268l-8.954,2.328c-10.745,2.865-16.296,8.417-16.296,19.699
	c0,11.103,5.73,18.624,15.042,18.624c13.073,0,22.026-9.85,22.026-26.862V188.215z"/>
<path fill="#FFFFFF" d="M969.888,146.849h10.745v106.192c0,16.296-9.133,21.848-20.594,21.848c-2.149,0-4.119-0.179-5.91-0.537
	v-8.954c1.254,0.179,2.507,0.537,4.119,0.537c7.521,0,11.64-3.224,11.64-16.475V146.849z M969.888,114.078h10.745v18.266h-10.745
	V114.078z"/>
<path fill="#FFFFFF" d="M1055.663,210.421c-1.611,20.235-12.714,33.667-30.622,33.667c-20.057,0-31.876-13.969-31.876-49.784
	c0-32.95,11.819-49.604,32.771-49.604c21.131,0,30.622,14.505,30.622,46.202v3.94h-51.933v4.477
	c0,27.398,9.671,35.815,20.236,35.815c11.281,0,18.266-8.059,20.057-24.713H1055.663z M1045.098,185.887
	c-0.358-23.638-6.983-32.233-20.235-32.233s-19.878,8.596-20.236,32.233H1045.098z"/>
<path fill="#FFFFFF" d="M1059.137,146.849h11.461l21.131,82.913h0.358l19.34-82.913h11.461l-25.07,95.09h-12.178L1059.137,146.849z"
	/>
<path fill="#FFFFFF" d="M1157.358,144.7c20.952,0,32.771,16.654,32.771,49.604c0,33.13-11.819,49.784-32.771,49.784
	s-32.771-16.654-32.771-49.784C1124.587,161.354,1136.406,144.7,1157.358,144.7z M1157.358,235.134
	c11.998,0,21.311-10.387,21.311-40.83c0-30.264-9.313-40.65-21.311-40.65s-21.311,10.387-21.311,40.65
	C1136.048,224.748,1145.36,235.134,1157.358,235.134z"/>
</svg>
